<svg id="google" xmlns="http://www.w3.org/2000/svg" width="40" height="40" viewBox="0 0 40 40">
  <path id="Path_54" data-name="Path 54" d="M263.094,200.687a19.95,19.95,0,0,0-.351-3.735,1.172,1.172,0,0,0-1.151-.952H243.172A1.171,1.171,0,0,0,242,197.171V204.2a1.171,1.171,0,0,0,1.172,1.172h9.451a10.494,10.494,0,0,1-2.353,3.1l6.623,6.623A19.849,19.849,0,0,0,263.094,200.687Z" transform="translate(-223.094 -180.687)" fill="#DDD"/>
  <path id="Path_55" data-name="Path 55" d="M61.174,9.375A10.441,10.441,0,0,1,67.5,11.488a1.17,1.17,0,0,0,1.532-.109l5-5a1.172,1.172,0,0,0-.076-1.727A19.9,19.9,0,0,0,44.663,8.785l6.879,6.879A10.55,10.55,0,0,1,61.174,9.375Z" transform="translate(-41.174 0)" fill="#DDD"/>
  <path id="Path_56" data-name="Path 56" d="M61.174,327.164a19.791,19.791,0,0,0,11.922-4l-6.748-6.748A10.5,10.5,0,0,1,51.542,311.5l-6.879,6.879A19.918,19.918,0,0,0,61.174,327.164Z" transform="translate(-41.174 -287.164)" fill="#DDD"/>
  <path id="Path_57" data-name="Path 57" d="M9.546,151a8.434,8.434,0,0,1,0-3.376l-7.353-7.353a19.74,19.74,0,0,0,0,18.083Z" transform="translate(0 -129.312)" fill="#DDD"/>
</svg>
