<svg xmlns="http://www.w3.org/2000/svg" width="165" height="51" viewBox="0 0 800 170">
  <g id="logo" transform="translate(-321 -319)">
    <g id="puzzle" transform="translate(321 268)">
      <path id="Path_150" data-name="Path 150" d="M81.215,182.367V154.826a5.078,5.078,0,0,1,6.776-4.784,30.469,30.469,0,0,0,8.451,1.869,5.076,5.076,0,1,0,0-10.152,30.48,30.48,0,0,0-8.452,1.869,5.078,5.078,0,0,1-6.776-4.784V111.3H70.463a26.7,26.7,0,0,0,.6-5.076,15.228,15.228,0,0,0-30.456,0,26.727,26.727,0,0,0,.6,5.076H25.38A5.073,5.073,0,0,0,20.3,116.38v15.827a26.726,26.726,0,0,0-5.076-.6,15.228,15.228,0,0,0,0,30.456,26.727,26.727,0,0,0,5.076-.6v15.827a5.073,5.073,0,0,0,5.076,5.076H41.207a26.7,26.7,0,0,0-.6,5.076,15.228,15.228,0,0,0,30.456,0,26.727,26.727,0,0,0-.6-5.076Z" fill="#fff"/>
      <path id="Path_151" data-name="Path 151" d="M337.987,131.607a26.726,26.726,0,0,0-5.076.6V116.38a5.073,5.073,0,0,0-5.076-5.076H312.008a26.7,26.7,0,0,0,.6-5.076,15.228,15.228,0,1,0-30.456,0,26.729,26.729,0,0,0,.6,5.076H272v20.884a27.435,27.435,0,0,1,5.076-.58,15.228,15.228,0,0,1,0,30.456,27.434,27.434,0,0,1-5.076-.58v20.884h10.751a26.7,26.7,0,0,0-.6,5.076,15.228,15.228,0,0,0,30.456,0,26.727,26.727,0,0,0-.6-5.076h15.827a5.073,5.073,0,0,0,5.076-5.076V161.463a26.7,26.7,0,0,0,5.076.6,15.228,15.228,0,0,0,0-30.456Z" transform="translate(-179.957)" fill="#fff"/>
    </g>
    <text id="Idesia" transform="translate(533 461)" fill="#fff" font-size="140" font-family="Nunito-Black, Nunito" font-weight="800"><tspan x="0" y="0">Idesia</tspan></text>
  </g>
</svg>
