<svg xmlns="http://www.w3.org/2000/svg" width="109" height="37" viewBox="0 0 109 37">
  <g id="Group_152" data-name="Group 152" transform="translate(-544 -318)">
    <text id="Idesia" transform="translate(577 318)" fill="#fff" font-size="27" font-family="Nunito-Black, Nunito" font-weight="800"><tspan x="0" y="27">Idesia</tspan></text>
    <g id="jigsaw" transform="translate(544 321.904)">
      <path id="Path_152" data-name="Path 152" d="M3.394,8.785a3.387,3.387,0,0,1,5.914,2.134H11.38V7.277h1.338a1.97,1.97,0,0,0,2.075-1.84A1.967,1.967,0,0,0,12.718,3.6H11.38V0H.462V10.918H2.5a3.621,3.621,0,0,1,.9-2.134Z" transform="translate(-0.462)" fill="red"/>
      <path id="Path_153" data-name="Path 153" d="M7.887,183.691a3.524,3.524,0,0,1,3.493-3.3v-2.139H7.739v-1.268a2.017,2.017,0,0,0-1.892-2.075,1.933,1.933,0,0,0-1.78,2.075v1.268H.462V189.24H11.38V187.2A3.744,3.744,0,0,1,7.887,183.691Z" transform="translate(-0.462 -165.684)" fill="#fff"/>
      <path id="Path_154" data-name="Path 154" d="M253.051,5.016a2.034,2.034,0,0,0-2.03-1.45h-1.269l0-3.566H238.762V2.035a3.522,3.522,0,0,1,3.344,3.4,3.527,3.527,0,0,1-3.344,3.41v2.071h3.71v1.338a2.066,2.066,0,0,0,1.945,2.075,1.9,1.9,0,0,0,1.727-2.075V10.918h3.6l0-3.681c1.305,0,1.685.058,2.268-.228a1.824,1.824,0,0,0,1.031-1.994Z" transform="translate(-226.193)" fill="red"/>
      <path id="Path_155" data-name="Path 155" d="M183.757,238.3a3.421,3.421,0,0,1-3.3,3.344,3.634,3.634,0,0,1-3.513-3.344H174.8v3.71h-1.268c-1.107,0-2.293.694-2.293,1.727a2.3,2.3,0,0,0,2.293,1.945H174.8v3.6l3.8.021c0,1.259-.074,1.778.281,2.4a1.8,1.8,0,0,0,1.559.975,1.969,1.969,0,0,0,1.832-2.075V249.3l3.514-.016-.043-10.987Z" transform="translate(-162.234 -225.731)" fill="#fff"/>
    </g>
  </g>
</svg>

