<svg xmlns="http://www.w3.org/2000/svg" width="441.213" height="509.443" viewBox="0 0 441.213 509.443">
  <g class="anima-utama" id="main-anima" data-name="main-anima" transform="translate(-1105.961 -2795.173)">
    <g id="jigsaw" transform="translate(1183.955 2880) scale(0.839 1)">
      <path id="Path_99" data-name="Path 99" d="M44.158,130.916c29.706-34.558,84.136-14.139,88.131,31.8h30.884V108.443h19.934c17.049,0,30.923-12.3,30.923-27.425,0-15.053-13.874-27.3-30.923-27.3H163.173V0H.462V162.711H30.78a53.963,53.963,0,0,1,13.378-31.8Z" transform="translate(0)" fill="#403f3f"/>
      <path id="Path_100" data-name="Path 100" d="M111.121,305.771c0-28.761,25.7-47.178,52.052-49.151V224.737H108.9v-18.9c0-16.766-12.915-30.923-28.2-30.923-16.6,0-26.521,15.721-26.521,30.923v18.9H.462V388.471H163.173V358.137c-27.019-2.332-52.052-24.42-52.052-52.366Z" transform="translate(0 -37.423)" fill="#403f3f"/>
      <path id="Path_101" data-name="Path 101" d="M451.7,74.745c-2.871-11.91-14.946-21.608-30.247-21.608H402.542L402.5,0H238.762V30.326C266.635,32.542,288.6,54.434,288.6,81.018c0,26.655-21.962,48.6-49.835,50.826v30.868h55.29v19.934c0,16.468,13.544,30.923,28.981,30.923,16.727,0,25.743-15.933,25.743-30.923V162.711H402.5l.047-54.85c19.452,0,25.109.869,33.792-3.4,2.246,0,19.7-11.6,15.367-29.72Z" transform="translate(-50.985)" fill="#403f3f"/>
      <path id="Path_102" data-name="Path 102" d="M357.747,238.3c-2.083,28.3-22.921,49.835-49.159,49.835-26.977,0-49.992-22.379-52.358-49.835H224.316v55.29h-18.9c-16.5,0-34.169,10.344-34.169,25.743,0,16.059,18.692,28.981,34.169,28.981h18.9v53.718l56.69.314c0,18.764-1.109,26.5,4.19,35.773,4.834,8.7,13.428,14.534,23.235,14.534,15.385,0,27.3-14.281,27.3-30.923V402.269l52.366-.236L387.459,238.3Z" transform="translate(-36.539 -50.986)" fill="#403f3f"/>
    </g>
    <g id="jigsaw-2" data-name="jigsaw" transform="translate(1090.656 2814) scale(0.94 1)">
      <path id="Path_99-2" data-name="Path 99" d="M44.158,130.916c29.706-34.558,84.136-14.139,88.131,31.8h30.884V108.443h19.934c17.049,0,30.923-12.3,30.923-27.425,0-15.053-13.874-27.3-30.923-27.3H163.173V0H.462V162.711H30.78a53.963,53.963,0,0,1,13.378-31.8Z" transform="translate(0)" fill="#c3c3c3"/>
      <path id="Path_100-2" data-name="Path 100" d="M111.121,305.771c0-28.761,25.7-47.178,52.052-49.151V224.737H108.9v-18.9c0-16.766-12.915-30.923-28.2-30.923-16.6,0-26.521,15.721-26.521,30.923v18.9H.462V388.471H163.173V358.137c-27.019-2.332-52.052-24.42-52.052-52.366Z" transform="translate(0 -37.423)" fill="#c3c3c3"/>
      <path id="Path_101-2" data-name="Path 101" d="M451.7,74.745c-2.871-11.91-14.946-21.608-30.247-21.608H402.542L402.5,0H238.762V30.326C266.635,32.542,288.6,54.434,288.6,81.018c0,26.655-21.962,48.6-49.835,50.826v30.868h55.29v19.934c0,16.468,13.544,30.923,28.981,30.923,16.727,0,25.743-15.933,25.743-30.923V162.711H402.5l.047-54.85c19.452,0,25.109.869,33.792-3.4,2.246,0,19.7-11.6,15.367-29.72Z" transform="translate(-50.985)" fill="#c3c3c3"/>
      <path id="Path_102-2" data-name="Path 102" d="M357.747,238.3c-2.083,28.3-22.921,49.835-49.159,49.835-26.977,0-49.992-22.379-52.358-49.835H224.316v55.29h-18.9c-16.5,0-34.169,10.344-34.169,25.743,0,16.059,18.692,28.981,34.169,28.981h18.9v53.718l56.69.314c0,18.764-1.109,26.5,4.19,35.773,4.834,8.7,13.428,14.534,23.235,14.534,15.385,0,27.3-14.281,27.3-30.923V402.269l52.366-.236L387.459,238.3Z" transform="translate(-36.539 -50.986)" fill="#c3c3c3"/>
    </g>
  </g>
</svg>
