<svg xmlns="http://www.w3.org/2000/svg" width="211.647" height="246.885" viewBox="0 0 211.647 246.885">
  <g id="Group_150" data-name="Group 150" transform="translate(5202.48 -12150.051)">
    <path id="Path_91" data-name="Path 91" d="M2663.77,6960.935l-77.714-40.706,27.626-11.961,30.565,11.961,19.522,8.067Z" transform="translate(-7705 5433)" fill="#222"/>
    <g id="Group_66" data-name="Group 66" transform="translate(-8474 5501.735)">
      <line id="Line_8" data-name="Line 8" y2="134.866" transform="translate(3459.047 6676.457)" fill="none" stroke="#888" stroke-linecap="round" stroke-width="2"/>
      <path id="Path_63" data-name="Path 63" d="M-2454.906,6455.656l50.008-28.34,51.179,28.34Z" transform="translate(5813.527 221)" fill="#222"/>
      <path id="Path_75" data-name="Path 75" d="M-2454.906,6455.656l50.008-28.34,51.179,28.34Z" transform="translate(5812.909 355.557)" fill="#343434"/>
      <path id="Path_85" data-name="Path 85" d="M-2454.906,6455.656l50.008-28.34,51.179,28.34Z" transform="translate(5812.909 355.557)" fill="#343434"/>
      <path id="Path_84" data-name="Path 84" d="M-2454.906,6455.656l50.008-28.34,51.179,28.34Z" transform="translate(5812.909 325.004)" fill="#5a5a5a"/>
      <path id="Path_86" data-name="Path 86" d="M-2454.906,6455.656l50.008-28.34,51.179,28.34Z" transform="translate(5812.909 292.599)" fill="#a2a2a2"/>
      <path id="Path_88" data-name="Path 88" d="M-2454.906,6455.656l50.008-28.34,51.179,28.34Z" transform="translate(5812.909 257.108)" fill="#fff"/>
      <path id="Path_66" data-name="Path 66" d="M-2454.906,6427.316l50.008,28.34,51.179-28.34Z" transform="translate(5812.909 249.083)" fill="#222"/>
      <path id="Path_69" data-name="Path 69" d="M-2454.906,6427.316l50.008,28.34,51.179-28.34Z" transform="translate(5812.909 383.949)" fill="#343434"/>
      <path id="Path_76" data-name="Path 76" d="M-2454.906,6427.316l50.008,28.34,51.179-28.34h-101.187Z" transform="translate(5812.909 383.949)" fill="#343434"/>
      <path id="Path_83" data-name="Path 83" d="M-2454.906,6427.316l50.008,28.34,51.179-28.34Z" transform="translate(5812.909 353.087)" fill="#5a5a5a"/>
      <path id="Path_87" data-name="Path 87" d="M-2454.906,6427.316l50.008,28.34,51.179-28.34Z" transform="translate(5812.909 320.683)" fill="#a2a2a2"/>
      <path id="Path_89" data-name="Path 89" d="M-2454.906,6427.316l50.008,28.34,51.179-28.34Z" transform="translate(5812.909 285.191)" fill="#fff"/>
      <g id="Group_58" data-name="Group 58" transform="translate(3357.963 6676.912)">
        <path id="Path_79" data-name="Path 79" d="M-3223.655,6383.773V6248.857l-50.382-27.88V6355.91Z" transform="translate(3274.037 -6220.977)" fill="#c6c6c6"/>
        <g id="Group_51" data-name="Group 51" transform="translate(0.77 12.437)">
          <path id="Path_72" data-name="Path 72" d="M6.393-8.107,0-11.726V-4.5L6.393-1.009Z" transform="translate(39.503 32.712)" fill="#8a8a8a"/>
          <path id="Path_72-2" data-name="Path 72" d="M6.393-8.107,0-11.726V-4.5L6.393-1.009Z" transform="translate(29.627 27.465)" fill="#8a8a8a"/>
          <path id="Path_72-3" data-name="Path 72" d="M6.393-8.107,0-11.726V-4.5L6.393-1.009Z" transform="translate(19.752 22.527)" fill="#8a8a8a"/>
          <path id="Path_73" data-name="Path 73" d="M6.393-8.107,0-11.726V-4.5L6.393-1.009Z" transform="translate(9.876 17.281)" fill="#8a8a8a"/>
          <path id="Path_74" data-name="Path 74" d="M6.393-8.107,0-11.726V-4.5L6.393-1.009Z" transform="translate(0 11.726)" fill="#8a8a8a"/>
        </g>
        <g id="Group_53" data-name="Group 53" transform="translate(1.77 47.174)">
          <path id="Path_72-4" data-name="Path 72" d="M6.393-8.107,0-11.726V-4.5L6.393-1.009Z" transform="translate(39.503 32.712)" fill="#8a8a8a"/>
          <path id="Path_72-5" data-name="Path 72" d="M6.393-8.107,0-11.726V-4.5L6.393-1.009Z" transform="translate(29.627 27.465)" fill="#8a8a8a"/>
          <path id="Path_72-6" data-name="Path 72" d="M6.393-8.107,0-11.726V-4.5L6.393-1.009Z" transform="translate(19.752 22.527)" fill="#8a8a8a"/>
          <path id="Path_73-2" data-name="Path 73" d="M6.393-8.107,0-11.726V-4.5L6.393-1.009Z" transform="translate(9.876 17.281)" fill="#8a8a8a"/>
          <path id="Path_74-2" data-name="Path 74" d="M6.393-8.107,0-11.726V-4.5L6.393-1.009Z" transform="translate(0 11.726)" fill="#8a8a8a"/>
        </g>
        <g id="Group_55" data-name="Group 55" transform="translate(1.77 82.912)">
          <path id="Path_72-7" data-name="Path 72" d="M6.393-8.107,0-11.726V-4.5L6.393-1.009Z" transform="translate(39.503 32.712)" fill="#8a8a8a"/>
          <path id="Path_72-8" data-name="Path 72" d="M6.393-8.107,0-11.726V-4.5L6.393-1.009Z" transform="translate(29.627 27.465)" fill="#8a8a8a"/>
          <path id="Path_72-9" data-name="Path 72" d="M6.393-8.107,0-11.726V-4.5L6.393-1.009Z" transform="translate(19.752 22.527)" fill="#8a8a8a"/>
          <path id="Path_73-3" data-name="Path 73" d="M6.393-8.107,0-11.726V-4.5L6.393-1.009Z" transform="translate(9.876 17.281)" fill="#8a8a8a"/>
          <path id="Path_74-3" data-name="Path 74" d="M6.393-8.107,0-11.726V-4.5L6.393-1.009Z" transform="translate(0 11.726)" fill="#8a8a8a"/>
        </g>
        <g id="Group_56" data-name="Group 56" transform="translate(0.77 114.28)">
          <path id="Path_72-10" data-name="Path 72" d="M6.393-8.107,0-11.726V-4.5L6.393-1.009Z" transform="translate(39.503 32.712)" fill="#8a8a8a"/>
          <path id="Path_72-11" data-name="Path 72" d="M6.393-8.107,0-11.726V-4.5L6.393-1.009Z" transform="translate(29.627 27.465)" fill="#8a8a8a"/>
          <path id="Path_72-12" data-name="Path 72" d="M6.393-8.107,0-11.726V-4.5L6.393-1.009Z" transform="translate(19.752 22.527)" fill="#8a8a8a"/>
          <path id="Path_73-4" data-name="Path 73" d="M6.393-8.107,0-11.726V-4.5L6.393-1.009Z" transform="translate(9.876 17.281)" fill="#8a8a8a"/>
          <path id="Path_74-4" data-name="Path 74" d="M6.393-8.107,0-11.726V-4.5L6.393-1.009Z" transform="translate(0 11.726)" fill="#8a8a8a"/>
        </g>
      </g>
    </g>
    <path id="Path_90" data-name="Path 90" d="M2637.534,6924.222l-137.015-72.615,36.837-21.718,49.37,19.574v47.677Z" transform="translate(-7703 5417)" fill="#222"/>
    <g id="Group_65" data-name="Group 65" transform="translate(-5041.215 12234.139)">
      <path id="Path_70" data-name="Path 70" d="M-3274.037,6383.773V6248.857l50.382-27.88V6355.91Z" transform="translate(3274.037 -6220.977)" fill="#fdfdfd"/>
      <g id="Group_73" data-name="Group 73" transform="translate(3.715 12.437)">
        <g id="Group_67" data-name="Group 67">
          <path id="Path_72-13" data-name="Path 72" d="M0-8.107l6.393-3.619V-4.5L0-1.009Z" transform="translate(0 32.712)" fill="#8a8a8a"/>
          <path id="Path_72-14" data-name="Path 72" d="M0-8.107l6.393-3.619V-4.5L0-1.009Z" transform="translate(9.876 27.465)" fill="#8a8a8a"/>
          <path id="Path_72-15" data-name="Path 72" d="M0-8.107l6.393-3.619V-4.5L0-1.009Z" transform="translate(19.752 22.527)" fill="#8a8a8a"/>
          <path id="Path_73-5" data-name="Path 73" d="M0-8.107l6.393-3.619V-4.5L0-1.009Z" transform="translate(29.627 17.281)" fill="#8a8a8a"/>
          <path id="Path_74-5" data-name="Path 74" d="M0-8.107l6.393-3.619V-4.5L0-1.009Z" transform="translate(39.503 11.726)" fill="#8a8a8a"/>
        </g>
        <g id="Group_69" data-name="Group 69" transform="translate(0 32.738)">
          <path id="Path_72-16" data-name="Path 72" d="M0-8.107l6.393-3.619V-4.5L0-1.009Z" transform="translate(0 32.712)" fill="#8a8a8a"/>
          <path id="Path_72-17" data-name="Path 72" d="M0-8.107l6.393-3.619V-4.5L0-1.009Z" transform="translate(9.876 27.465)" fill="#8a8a8a"/>
          <path id="Path_72-18" data-name="Path 72" d="M0-8.107l6.393-3.619V-4.5L0-1.009Z" transform="translate(19.752 22.527)" fill="#8a8a8a"/>
          <path id="Path_73-6" data-name="Path 73" d="M0-8.107l6.393-3.619V-4.5L0-1.009Z" transform="translate(29.627 17.281)" fill="#8a8a8a"/>
          <path id="Path_74-6" data-name="Path 74" d="M0-8.107l6.393-3.619V-4.5L0-1.009Z" transform="translate(39.503 11.726)" fill="#8a8a8a"/>
        </g>
        <g id="Group_71" data-name="Group 71" transform="translate(0 70.475)">
          <path id="Path_72-19" data-name="Path 72" d="M0-8.107l6.393-3.619V-4.5L0-1.009Z" transform="translate(0 32.712)" fill="#8a8a8a"/>
          <path id="Path_72-20" data-name="Path 72" d="M0-8.107l6.393-3.619V-4.5L0-1.009Z" transform="translate(9.876 27.465)" fill="#8a8a8a"/>
          <path id="Path_72-21" data-name="Path 72" d="M0-8.107l6.393-3.619V-4.5L0-1.009Z" transform="translate(19.752 22.527)" fill="#8a8a8a"/>
          <path id="Path_73-7" data-name="Path 73" d="M0-8.107l6.393-3.619V-4.5L0-1.009Z" transform="translate(29.627 17.281)" fill="#8a8a8a"/>
          <path id="Path_74-7" data-name="Path 74" d="M0-8.107l6.393-3.619V-4.5L0-1.009Z" transform="translate(39.503 11.726)" fill="#8a8a8a"/>
        </g>
        <g id="Group_72" data-name="Group 72" transform="translate(0 101.844)">
          <path id="Path_72-22" data-name="Path 72" d="M0-8.107l6.393-3.619V-4.5L0-1.009Z" transform="translate(0 32.712)" fill="#8a8a8a"/>
          <path id="Path_72-23" data-name="Path 72" d="M0-8.107l6.393-3.619V-4.5L0-1.009Z" transform="translate(9.876 27.465)" fill="#8a8a8a"/>
          <path id="Path_72-24" data-name="Path 72" d="M0-8.107l6.393-3.619V-4.5L0-1.009Z" transform="translate(19.752 22.527)" fill="#8a8a8a"/>
          <path id="Path_73-8" data-name="Path 73" d="M0-8.107l6.393-3.619V-4.5L0-1.009Z" transform="translate(29.627 17.281)" fill="#8a8a8a"/>
          <path id="Path_74-8" data-name="Path 74" d="M0-8.107l6.393-3.619V-4.5L0-1.009Z" transform="translate(39.503 11.726)" fill="#8a8a8a"/>
        </g>
      </g>
    </g>
  </g>
</svg>

