<svg id="twitter-logo-on-black-background" xmlns="http://www.w3.org/2000/svg" width="40.05" height="40.05" viewBox="0 0 40.05 40.05">
  <g id="post-twitter">
    <path id="Path_58" data-name="Path 58" d="M36.045,0H4A4.017,4.017,0,0,0,0,4v32.04a4.017,4.017,0,0,0,4,4h32.04a4.017,4.017,0,0,0,4-4V4A4.017,4.017,0,0,0,36.045,0ZM31.439,14.618c-.2,9.211-6.007,15.619-14.818,16.02a14.576,14.576,0,0,1-8.611-2.4,10.631,10.631,0,0,0,7.81-2.2,5.409,5.409,0,0,1-5.006-3.8,8.077,8.077,0,0,0,2.2,0,5.455,5.455,0,0,1-4.205-5.407,4.037,4.037,0,0,0,2.2.6c-1.8-1-3-4.806-1.6-7.209A15.868,15.868,0,0,0,20.425,15.82c-1.4-5.607,6.208-8.611,9.212-4.806a13.49,13.49,0,0,0,3.4-1.2,5.662,5.662,0,0,1-2.2,3,11.479,11.479,0,0,0,2.8-.8C33.442,13.016,32.44,13.817,31.439,14.618Z" fill="#DDD"/>
  </g>
</svg>
